{"asset":{"version":"2.0","generator":"Sliqtly"},"scene":0,"scenes":[{"nodes":[0,1,2,3],"extras":{"sliqtly":{"roomLight":0.45}}}],"nodes":[{"name":"crate","extras":{"sliqtly":{"jsx":"mesh","geometry":"boxGeometry","args":[3,3,3,1,1,1]}},"mesh":0},{"name":"sliqtly-key","translation":[2.236068,3.577709,2.683282],"rotation":[-0.365033,0.313725,0.13216,0.866523],"extensions":{"KHR_lights_punctual":{"light":0}},"extras":{"sliqtly":{"default":true}}},{"name":"sliqtly-fill","translation":[-4.213505,-1.203859,2.407717],"rotation":[0.104897,-0.498222,0.060874,0.858525],"extensions":{"KHR_lights_punctual":{"light":1}},"extras":{"sliqtly":{"default":true}}},{"camera":0,"translation":[0,0,3]}],"meshes":[{"name":"crate","primitives":[{"attributes":{"POSITION":0,"NORMAL":1,"TEXCOORD_0":2},"indices":3,"material":0}]}],"materials":[{"name":"crate","pbrMetallicRoughness":{"baseColorFactor":[0.806952,0.174647,0.012983,1],"metallicFactor":0,"roughnessFactor":1},"extensions":{"KHR_materials_unlit":{}},"extras":{"sliqtly":{"material":"meshBasicMaterial"}}}],"cameras":[{"type":"perspective","perspective":{"aspectRatio":1.777778,"yfov":0.872665,"znear":0.1,"zfar":2000}}],"extensions":{"KHR_lights_punctual":{"lights":[{"name":"sliqtly-key","type":"directional","color":[1,1,1],"intensity":5.026548},{"name":"sliqtly-fill","type":"directional","color":[0.75,0.75,0.75],"intensity":1.570796}]}},"extensionsUsed":["KHR_lights_punctual","KHR_materials_unlit"],"buffers":[{"byteLength":840,"uri":"data:application/octet-stream;base64,"}],"bufferViews":[{"buffer":0,"byteOffset":0,"byteLength":288,"target":34962},{"buffer":0,"byteOffset":288,"byteLength":288,"target":34962},{"buffer":0,"byteOffset":576,"byteLength":192,"target":34962},{"buffer":0,"byteOffset":768,"byteLength":72,"target":34963}],"accessors":[{"bufferView":0,"componentType":5126,"count":24,"type":"VEC3","min":[-1.5,-1.5,-1.5],"max":[1.5,1.5,1.5]},{"bufferView":1,"componentType":5126,"count":24,"type":"VEC3"},{"bufferView":2,"componentType":5126,"count":24,"type":"VEC2"},{"bufferView":3,"componentType":5123,"count":36,"type":"SCALAR"}]}